<svg fill="#000000" xmlns="http://www.w3.org/2000/svg"  viewBox="0 0 50 50" width="500px" height="500px"><path d="M27.87,23.702c2.069-2.641,3.842-5.54,5.714-8.344c-4.287,5.086-8.53,10.214-12.274,15.817C23.481,28.736,25.81,26.33,27.87,23.702z"/><path d="M25,2.001c-12.683,0-23,10.317-23,23s10.317,23,23,23s23-10.317,23-23S37.683,2.001,25,2.001z M36.909,17.006c-0.553,0.982-1.234,1.87-1.896,2.734c-0.921,1.202-2.016,2.638-3.003,3.932c-0.273,0.359-0.799,1.173-1.07,1.268c-0.194,0.068-0.425-0.001-0.635,0.002c-0.969,0.011-1.96,0.154-2.261,0.841c0.447,0.508,1.468,0.336,2.324,0.361c-1.142,1.797-2.43,3.577-3.695,5.391c-0.161,0.231-0.388,0.715-0.561,0.777c-0.343,0.123-1.054-0.056-1.606-0.048c-2.241,0.031-4.791,0.288-5.655,1.748c2.813,0.23,5.642,0.443,8.673,0.415c-2.403,1.42-6.547,0.896-9.26,0.506c0.568,1.553,1.807,2.311,3.307,2.761c0.278,0.083,0.279,0.207-0.029,0.173c-1.594-0.173-3.171-0.554-3.945-1.62c-0.136-0.186-0.136-0.468-0.429-0.542c-0.025,0.884,0.498,1.585,0.978,2.105c0.25,0.271,0.544,0.5,0.856,0.7c0.319,0.205,0.308,0.318-0.021,0.199c-1.004-0.365-1.948-0.801-2.701-1.463c-0.593,1.04-1.467,1.882-2.349,2.682c-0.197,0.179-0.195,0.003-0.026-0.25c0.403-0.606,1.454-1.695,1.696-2.64c0.116-0.455-0.118-1.258-0.434-1.286c-0.324-0.029-0.535,0.418-0.668,0.642c-0.195,0.328-0.311,0.592-0.456,0.877c-0.371-0.835-0.057-1.851,0.38-2.326c-0.732-0.823-1.445-1.668-2.236-2.421c-0.321-0.306-0.209-0.529,0.18-0.338c1.166,0.573,2.236,1.298,2.933,2.282c-0.365-1.336-0.793-2.732-1.278-3.906c-0.108-0.262,0.018-0.321,0.187-0.099c0.783,1.026,1.473,2.162,2.063,3.417c-0.12-1.815-0.071-3.544,0.563-4.605c0.044-0.074,0.089-0.277,0.222-0.226c0.204,0.656,0.35,1.237,0.602,1.95c0.103,0.289,0.568,1.663,0.919,1.612c0.234-0.034,0.283-0.639,0.309-1.117c0.113-2.005-0.163-4.312-0.286-6.151c0.282-0.315,0.66-0.713,0.95-1.013c0.098-0.101,0.211-0.278,0.322-0.231c-0.026,0.456,0.035,0.936,0.04,1.415c0.013,1.233,0.035,2.593,0.476,3.375c0.365-0.318,0.476-0.888,0.596-1.382c0.391-1.604,0.625-3.421,0.87-5.119c0.661-0.634,1.425-1.371,2.068-1.999c0.08-0.078,0.144-0.231,0.257-0.192c0.172,0.822,0.138,1.887,0.654,2.301c0.426-0.471,0.528-1.155,0.639-1.845c0.052-0.322,0.095-0.71,0.145-1.072c0.049-0.359,0.028-0.828,0.143-1.107c0.142-0.345,0.878-0.841,1.242-1.171c2.956-2.686,6.114-5.451,9.709-7.302c0.792,0.704,1.318,2.001,1.286,3.54C37.972,14.853,37.455,16.037,36.909,17.006z"/></svg>