<svg fill="#000000" xmlns="http://www.w3.org/2000/svg"  viewBox="0 0 50 50" width="500px" height="500px"><path d="M 25 2.0019531 C 12.309296 2.0019531 2.0000003 12.311249 2 25.001953 C 2 37.692658 12.309295 48.001953 25 48.001953 C 37.690705 48.001953 48 37.692658 48 25.001953 C 48 12.311249 37.690704 2.0019531 25 2.0019531 z M 25 4.0019531 C 36.609824 4.0019531 46 13.392129 46 25.001953 C 46 36.611778 36.609824 46.001953 25 46.001953 C 13.390176 46.001953 4 36.611778 4 25.001953 C 4.0000003 13.392129 13.390176 4.0019531 25 4.0019531 z M 36.712891 10 C 33.117891 11.851 29.959906 14.616734 27.003906 17.302734 C 26.639906 17.632734 25.903719 18.127656 25.761719 18.472656 C 25.646719 18.751656 25.666187 19.221078 25.617188 19.580078 C 25.567188 19.942078 25.524656 20.330344 25.472656 20.652344 C 25.361656 21.342344 25.259984 22.025094 24.833984 22.496094 C 24.317984 22.082094 24.351688 21.017312 24.179688 20.195312 C 24.066687 20.156312 24.003828 20.310672 23.923828 20.388672 C 23.280828 21.016672 22.516469 21.752719 21.855469 22.386719 C 21.610469 24.084719 21.375375 25.901859 20.984375 27.505859 C 20.864375 27.999859 20.753672 28.570672 20.388672 28.888672 C 19.947672 28.106672 19.925109 26.746672 19.912109 25.513672 C 19.907109 25.034672 19.847047 24.553656 19.873047 24.097656 C 19.762047 24.050656 19.648781 24.227125 19.550781 24.328125 C 19.260781 24.628125 18.883563 25.026797 18.601562 25.341797 C 18.724562 27.180797 18.999719 29.487188 18.886719 31.492188 C 18.860719 31.970187 18.812125 32.575375 18.578125 32.609375 C 18.227125 32.660375 17.761203 31.287047 17.658203 30.998047 C 17.406203 30.285047 17.260641 29.704828 17.056641 29.048828 C 16.923641 28.997828 16.879938 29.199437 16.835938 29.273438 C 16.201938 30.334438 16.151484 32.063906 16.271484 33.878906 C 15.681484 32.623906 14.991984 31.488891 14.208984 30.462891 C 14.039984 30.240891 13.913484 30.298547 14.021484 30.560547 C 14.506484 31.734547 14.935781 33.130797 15.300781 34.466797 C 14.603781 33.482797 13.533188 32.758547 12.367188 32.185547 C 11.978187 31.994547 11.8665 32.217438 12.1875 32.523438 C 12.9785 33.276437 13.691828 34.120359 14.423828 34.943359 C 13.986828 35.418359 13.671969 36.434531 14.042969 37.269531 C 14.187969 36.984531 14.303047 36.720578 14.498047 36.392578 C 14.631047 36.168578 14.843969 35.722953 15.167969 35.751953 C 15.483969 35.779953 15.717562 36.582109 15.601562 37.037109 C 15.359563 37.981109 14.307297 39.071734 13.904297 39.677734 C 13.735297 39.930734 13.734641 40.106734 13.931641 39.927734 C 14.813641 39.127734 15.686297 38.284141 16.279297 37.244141 C 17.032297 37.906141 17.976469 38.342031 18.980469 38.707031 C 19.309469 38.826031 19.320953 38.714766 19.001953 38.509766 C 18.689953 38.309766 18.396484 38.079594 18.146484 37.808594 C 17.666484 37.288594 17.142969 36.587125 17.167969 35.703125 C 17.460969 35.777125 17.461656 36.060094 17.597656 36.246094 C 18.371656 37.312094 19.948969 37.691234 21.542969 37.865234 C 21.850969 37.899234 21.847312 37.776359 21.570312 37.693359 C 20.070312 37.243359 18.831672 36.484641 18.263672 34.931641 C 20.976672 35.321641 25.120438 35.845781 27.523438 34.425781 C 24.492437 34.453781 21.664562 34.241719 18.851562 34.011719 C 19.715563 32.551719 22.264859 32.294672 24.505859 32.263672 C 25.057859 32.255672 25.768328 32.433547 26.111328 32.310547 C 26.284328 32.248547 26.512828 31.764203 26.673828 31.533203 C 27.938828 29.719203 29.225188 27.939578 30.367188 26.142578 C 29.511187 26.117578 28.491922 26.28925 28.044922 25.78125 C 28.345922 25.09425 29.335687 24.952406 30.304688 24.941406 C 30.514688 24.939406 30.745453 25.007453 30.939453 24.939453 C 31.210453 24.844453 31.736766 24.030875 32.009766 23.671875 C 32.996766 22.377875 34.092672 20.942234 35.013672 19.740234 C 35.675672 18.876234 36.355203 17.987859 36.908203 17.005859 C 37.454203 16.036859 37.971047 14.851062 37.998047 13.539062 C 38.030047 12.000063 37.504891 10.704 36.712891 10 z M 33.582031 15.357422 C 31.711031 18.161422 29.938141 21.060172 27.869141 23.701172 C 25.809141 26.329172 23.480594 28.735828 21.308594 31.173828 C 25.052594 25.571828 29.295031 20.443422 33.582031 15.357422 z"/></svg>